<svg id="visual" viewBox="0 0 900 600" width="900" height="600" xmlns="http://www.w3.org/2000/svg" xmlns:xlink="http://www.w3.org/1999/xlink" version="1.1"><rect x="0" y="0" width="900" height="600" fill="#ffffff"></rect><defs><linearGradient id="grad1_0" x1="33.3%" y1="100%" x2="100%" y2="0%"><stop offset="20%" stop-color="#ffffff" stop-opacity="1"></stop><stop offset="80%" stop-color="#ffffff" stop-opacity="1"></stop></linearGradient></defs><defs><linearGradient id="grad2_0" x1="0%" y1="100%" x2="66.7%" y2="0%"><stop offset="20%" stop-color="#ffffff" stop-opacity="1"></stop><stop offset="80%" stop-color="#ffffff" stop-opacity="1"></stop></linearGradient></defs><g transform="translate(900, 600)"><path d="M-432.7 0C-426.8 -56.9 -421 -113.8 -399.7 -165.6C-378.5 -217.3 -341.8 -263.8 -299.1 -299.1C-256.4 -334.4 -207.8 -358.4 -156.9 -378.8C-106 -399.2 -53 -415.9 0 -432.7L0 0Z" fill="#9cdeef"></path></g><g transform="translate(0, 0)"><path d="M432.7 0C404 47.5 375.4 95 358.5 148.5C341.5 202 336.3 261.5 305.9 305.9C275.6 350.3 220.1 379.6 164.9 398.2C109.8 416.8 54.9 424.7 0 432.7L0 0Z" fill="#9cdeef"></path></g></svg>